<svg width="52" height="52" viewBox="0 0 52 52" fill="none" xmlns="http://www.w3.org/2000/svg">
<path d="M5.78064 29.7158C8.96564 28.8903 12.3045 28.4527 15.7473 28.4527C27.5881 28.4527 38.2156 33.644 45.4783 41.873M39.7193 46.2193H12.2806C8.69047 46.2193 5.78064 43.3095 5.78064 39.7193V12.2807C5.78064 8.6905 8.69047 5.78067 12.2806 5.78067H39.7193C43.3095 5.78067 46.2193 8.6905 46.2193 12.2807V39.7193C46.2193 43.3095 43.3095 46.2193 39.7193 46.2193ZM39.2535 18.8695C39.2535 22.0609 36.6664 24.648 33.475 24.648C30.2836 24.648 27.6965 22.0609 27.6965 18.8695C27.6965 15.6781 30.2836 13.091 33.475 13.091C36.6664 13.091 39.2535 15.6781 39.2535 18.8695Z" stroke="#CCCCCC" stroke-width="2" stroke-miterlimit="10" stroke-linecap="round" stroke-linejoin="round"/>
</svg>
